<svg width="54" height="54" viewBox="0 0 54 54" fill="none" xmlns="http://www.w3.org/2000/svg">
  <path d="M27 2C13.2 2 2 13.2 2 27C2 40.8 13.2 52 27 52C40.8 52 52 40.8 52 27C52 13.2 40.8 2 27 2ZM27 48C15.4 48 6 38.6 6 27C6 15.4 15.4 6 27 6C38.6 6 48 15.4 48 27C48 38.6 38.6 48 27 48Z" fill="#242424"/>
  <path d="M35 18C33.9 18 33 18.9 33 20V25H31V20C31 17.8 32.8 16 35 16C37.2 16 39 17.8 39 20V25H37V20C37 18.9 36.1 18 35 18Z" fill="#242424"/>
  <path d="M25 20C23.9 20 23 20.9 23 22V27H21V22C21 19.8 22.8 18 25 18C27.2 18 29 19.8 29 22V27H27V22C27 20.9 26.1 20 25 20Z" fill="#242424"/>
  <path d="M15 22C13.9 22 13 22.9 13 24V29H11V24C11 21.8 12.8 20 15 20C17.2 20 19 21.8 19 24V29H17V24C17 22.9 16.1 22 15 22Z" fill="#242424"/>
  <path d="M35 30C33.9 30 33 30.9 33 32V37H31V32C31 29.8 32.8 28 35 28C37.2 28 39 29.8 39 32V37H37V32C37 30.9 36.1 30 35 30Z" fill="#242424"/>
  <path d="M25 32C23.9 32 23 32.9 23 34V39H21V34C21 31.8 22.8 30 25 30C27.2 30 29 31.8 29 34V39H27V34C27 32.9 26.1 32 25 32Z" fill="#242424"/>
  <path d="M15 34C13.9 34 13 34.9 13 36V41H11V36C11 33.8 12.8 32 15 32C17.2 32 19 33.8 19 36V41H17V36C17 34.9 16.1 34 15 34Z" fill="#242424"/>
</svg> 