<svg xmlns="http://www.w3.org/2000/svg" xmlns:xlink="http://www.w3.org/1999/xlink" viewBox="0 0 24 21.375" overflow="visible"><path d="M 14.23 10.69 C 14.23 11.925 13.23 12.926 11.995 12.926 C 10.76 12.926 9.759 11.925 9.759 10.69 C 9.759 9.456 10.759 8.455 11.994 8.454 C 13.229 8.454 14.23 9.455 14.23 10.69 Z M 16.878 0 C 15.532 0 13.771 0.96 11.99 2.622 C 10.21 0.969 8.448 0.02 7.103 0.02 C 6.693 0.02 6.32 0.113 5.997 0.298 C 4.622 1.091 4.314 3.562 5.024 6.663 C 1.98 7.603 0 9.106 0 10.69 C 0 12.28 1.99 13.787 5.043 14.72 C 4.339 17.833 4.653 20.308 6.031 21.1 C 6.351 21.287 6.721 21.375 7.133 21.375 C 8.478 21.375 10.24 20.415 12.021 18.751 C 13.801 20.405 15.563 21.354 16.908 21.354 C 17.318 21.354 17.691 21.264 18.014 21.079 C 19.388 20.287 19.697 17.816 18.987 14.714 C 22.02 13.782 24 12.276 24 10.69 C 24 9.1 22.01 7.593 18.957 6.658 C 19.661 3.548 19.347 1.071 17.969 0.278 C 17.636 0.091 17.259 -0.005 16.877 0 Z M 16.873 1.09 L 16.873 1.096 C 17.098 1.096 17.279 1.14 17.431 1.223 C 18.097 1.605 18.386 3.058 18.161 4.927 C 18.107 5.387 18.019 5.872 17.911 6.367 C 16.888 6.12 15.85 5.941 14.804 5.833 C 14.181 4.973 13.501 4.156 12.769 3.386 C 14.361 1.906 15.856 1.094 16.874 1.091 Z M 7.103 1.11 C 8.115 1.11 9.617 1.918 11.213 3.39 C 10.527 4.11 9.843 4.927 9.193 5.832 C 8.144 5.939 7.104 6.119 6.08 6.37 C 5.973 5.901 5.888 5.427 5.826 4.95 C 5.596 3.082 5.88 1.63 6.54 1.243 C 6.73 1.153 6.94 1.116 7.103 1.111 Z M 11.985 4.16 C 12.44 4.628 12.895 5.152 13.345 5.724 C 12.905 5.704 12.455 5.69 12 5.69 C 11.54 5.69 11.085 5.7 10.64 5.724 C 11.08 5.152 11.535 4.628 11.985 4.159 Z M 12 6.786 C 12.74 6.786 13.477 6.82 14.202 6.879 C 14.608 7.461 15.004 8.082 15.385 8.739 C 15.757 9.379 16.095 10.029 16.403 10.685 C 16.095 11.34 15.757 11.995 15.39 12.635 C 15.01 13.295 14.617 13.923 14.21 14.505 C 12.742 14.634 11.266 14.635 9.798 14.51 C 9.378 13.907 8.984 13.286 8.615 12.65 C 8.243 12.01 7.905 11.36 7.597 10.704 C 7.906 10.038 8.244 9.386 8.61 8.75 C 8.99 8.09 9.383 7.464 9.79 6.882 C 10.525 6.817 11.262 6.785 12 6.784 Z M 8.365 7.04 C 8.125 7.417 7.885 7.803 7.661 8.2 C 7.436 8.59 7.226 8.982 7.026 9.374 C 6.761 8.718 6.536 8.064 6.35 7.427 C 6.99 7.277 7.665 7.144 8.365 7.041 Z M 15.625 7.04 C 16.32 7.143 16.99 7.27 17.631 7.427 C 17.451 8.059 17.226 8.709 16.971 9.36 C 16.563 8.564 16.114 7.79 15.626 7.04 Z M 18.688 7.715 C 19.172 7.865 19.632 8.032 20.063 8.213 C 21.795 8.953 22.915 9.921 22.915 10.689 C 22.91 11.457 21.79 12.429 20.058 13.164 C 19.638 13.344 19.178 13.506 18.703 13.657 C 18.403 12.641 18.035 11.645 17.603 10.677 C 18.053 9.66 18.413 8.667 18.688 7.713 Z M 5.293 7.719 C 5.571 8.679 5.938 9.676 6.393 10.699 C 5.964 11.661 5.601 12.652 5.307 13.663 C 4.823 13.513 4.363 13.345 3.937 13.163 C 2.205 12.426 1.085 11.457 1.085 10.689 C 1.085 9.921 2.205 8.947 3.937 8.213 C 4.357 8.033 4.817 7.871 5.293 7.719 Z M 16.971 11.999 C 17.236 12.656 17.461 13.311 17.647 13.947 C 17.007 14.104 16.331 14.237 15.631 14.337 C 16.118 13.582 16.566 12.801 16.972 11.999 Z M 7.026 12.019 C 7.226 12.411 7.436 12.802 7.666 13.194 C 7.896 13.584 8.131 13.966 8.371 14.337 C 7.697 14.24 7.027 14.111 6.365 13.951 C 6.545 13.321 6.771 12.669 7.025 12.018 Z M 17.92 15.006 C 18.032 15.499 18.12 15.974 18.174 16.429 C 18.404 18.297 18.12 19.749 17.46 20.137 C 17.313 20.227 17.122 20.265 16.897 20.265 C 15.885 20.265 14.383 19.458 12.787 17.985 C 13.473 17.265 14.157 16.449 14.807 15.545 C 15.914 15.427 16.961 15.245 17.92 15.005 Z M 6.09 15.016 C 7.05 15.25 8.096 15.431 9.197 15.548 C 9.857 16.453 10.542 17.275 11.232 17.994 C 9.637 19.477 8.14 20.289 7.122 20.289 C 6.93 20.291 6.74 20.245 6.569 20.157 C 5.903 19.777 5.614 18.323 5.839 16.454 C 5.893 15.994 5.981 15.51 6.089 15.016 Z M 10.65 15.656 C 11.09 15.676 11.54 15.69 11.995 15.69 C 12.455 15.69 12.91 15.68 13.355 15.656 C 12.915 16.228 12.46 16.751 12.01 17.221 C 11.555 16.751 11.1 16.228 10.65 15.656 Z" fill="rgb(0,0,0)"></path></svg>